<?xml version="1.0" standalone="yes"?>

<svg version="1.1" viewBox="0.0 0.0 960.0 720.0" fill="none" stroke="none" stroke-linecap="square" stroke-miterlimit="10" xmlns="http://www.w3.org/2000/svg" xmlns:xlink="http://www.w3.org/1999/xlink"><clipPath id="p.0"><path d="m0 0l960.0 0l0 720.0l-960.0 0l0 -720.0z" clip-rule="nonzero"></path></clipPath><g clip-path="url(#p.0)"><path fill="#000000" fill-opacity="0.0" d="m0 0l960.0 0l0 720.0l-960.0 0z" fill-rule="nonzero"></path><path fill="#000000" fill-opacity="0.0" d="m148.47769 195.71129l106.64566 0.62991333" fill-rule="nonzero"></path><path stroke="#666666" stroke-width="3.0" stroke-linejoin="round" stroke-linecap="butt" d="m159.84749 195.77844l84.99478 0.5020294" fill-rule="evenodd"></path><path fill="#666666" stroke="#666666" stroke-width="3.0" stroke-linecap="butt" d="m159.81834 200.71336l-9.869827 -0.058303833l0.058303833 -9.869827l9.869827 0.058303833l-0.058303833 9.869827z" fill-rule="nonzero"></path><path fill="#666666" stroke="#666666" stroke-width="3.0" stroke-linecap="butt" d="m244.84229 196.28049l-3.393631 3.3537598l9.289078 -3.3189392l-9.249222 -3.4284515z" fill-rule="evenodd"></path><path fill="#000000" fill-opacity="0.0" d="m287.3517 112.632545l45.88974 0l0 45.25985l-45.88974 0z" fill-rule="nonzero"></path><path stroke="#666666" stroke-width="2.0" stroke-linejoin="round" stroke-linecap="butt" d="m287.3517 112.632545l45.88974 0l0 45.25985l-45.88974 0z" fill-rule="nonzero"></path><path fill="#000000" fill-opacity="0.0" d="m292.93176 148.59286c5.297058 0 11.430389 -1.5596008 14.879272 -5.5800476c3.9943237 -4.656296 4.3153076 -17.993141 9.921234 -15.501312c7.8706055 3.4984589 4.6619263 20.233307 13.018402 22.320206" fill-rule="evenodd"></path><path stroke="#666666" stroke-width="2.0" stroke-linejoin="round" stroke-linecap="butt" d="m292.93176 148.59286c5.297058 0 11.430389 -1.5596008 14.879272 -5.5800476c3.9943237 -4.656296 4.3153076 -17.993141 9.921234 -15.501312c7.8706055 3.4984589 4.6619263 20.233307 13.018402 22.320206" fill-rule="evenodd"></path><path fill="#000000" fill-opacity="0.0" d="m287.3517 173.39633l45.88974 0l0 45.259842l-45.88974 0z" fill-rule="nonzero"></path><path stroke="#666666" stroke-width="2.0" stroke-linejoin="round" stroke-linecap="butt" d="m287.3517 173.39633l45.88974 0l0 45.259842l-45.88974 0z" fill-rule="nonzero"></path><path fill="#000000" fill-opacity="0.0" d="m292.31235 208.72917c4.5361023 -6.8017883 0.6626587 -21.33757 8.679779 -22.939636c7.7961426 -1.5579071 -2.3880615 18.468994 3.7191467 23.559052c5.55896 4.6331024 14.605713 2.0432434 21.700806 0.61943054" fill-rule="evenodd"></path><path stroke="#666666" stroke-width="2.0" stroke-linejoin="round" stroke-linecap="butt" d="m292.31235 208.72917c4.5361023 -6.8017883 0.6626587 -21.33757 8.679779 -22.939636c7.7961426 -1.5579071 -2.3880615 18.468994 3.7191467 23.559052c5.55896 4.6331024 14.605713 2.0432434 21.700806 0.61943054" fill-rule="evenodd"></path><path fill="#000000" fill-opacity="0.0" d="m287.3517 234.16011l45.88974 0l0 45.259842l-45.88974 0z" fill-rule="nonzero"></path><path stroke="#666666" stroke-width="2.0" stroke-linejoin="round" stroke-linecap="butt" d="m287.3517 234.16011l45.88974 0l0 45.259842l-45.88974 0z" fill-rule="nonzero"></path><path fill="#000000" fill-opacity="0.0" d="m291.6929 270.72702c10.586975 -2.643921 8.927795 -26.039352 19.839905 -26.039352c11.140442 0 10.773712 23.236893 21.69815 25.419937" fill-rule="evenodd"></path><path stroke="#666666" stroke-width="2.0" stroke-linejoin="round" stroke-linecap="butt" d="m291.6929 270.72702c10.586975 -2.643921 8.927795 -26.039352 19.839905 -26.039352c11.140442 0 10.773712 23.236893 21.69815 25.419937" fill-rule="evenodd"></path><path fill="#000000" fill-opacity="0.0" d="m255.76115 176.49081l31.59056 -41.228348" fill-rule="nonzero"></path><path stroke="#666666" stroke-width="2.0" stroke-linejoin="round" stroke-linecap="butt" stroke-dasharray="8.0,6.0" d="m260.37143 170.47401l19.681702 -25.68628" fill-rule="evenodd"></path><path fill="#666666" stroke="#666666" stroke-width="2.0" stroke-linecap="butt" d="m256.3694 175.69704c-1.4423065 -1.105133 -1.7156372 -3.1702423 -0.61050415 -4.6125336c1.105133 -1.4422913 3.1702576 -1.715622 4.612549 -0.6104889c1.4422913 1.1051483 1.7156067 3.1702423 0.61047363 4.612549c-1.105133 1.4422913 -3.170227 1.715622 -4.6125183 0.61047363z" fill-rule="nonzero"></path><path fill="#666666" stroke="#666666" stroke-width="2.0" stroke-linecap="butt" d="m282.67532 146.79695l2.8980713 -9.213654l-8.142456 5.195221z" fill-rule="evenodd"></path><path fill="#000000" fill-opacity="0.0" d="m256.3596 211.08923l30.992126 45.700806" fill-rule="nonzero"></path><path stroke="#666666" stroke-width="2.0" stroke-linejoin="round" stroke-linecap="butt" stroke-dasharray="8.0,6.0" d="m260.61398 217.36272l20.002533 29.495667" fill-rule="evenodd"></path><path fill="#666666" stroke="#666666" stroke-width="2.0" stroke-linecap="butt" d="m256.92084 211.91687c1.5038452 -1.0198212 3.549652 -0.62745667 4.5694885 0.8763733c1.0198364 1.50383 0.6274719 3.549652 -0.8763733 4.5694885c-1.5038147 1.0198212 -3.549652 0.62745667 -4.5694885 -0.8763733c-1.0198059 -1.50383 -0.62745667 -3.549652 0.8763733 -4.5694885z" fill-rule="nonzero"></path><path fill="#666666" stroke="#666666" stroke-width="2.0" stroke-linecap="butt" d="m277.88248 248.71251l7.8282166 5.657669l-2.360077 -9.365906z" fill-rule="evenodd"></path><path fill="#000000" fill-opacity="0.0" d="m256.04462 195.71129l31.307098 0.31495667" fill-rule="nonzero"></path><path stroke="#666666" stroke-width="2.0" stroke-linejoin="round" stroke-linecap="butt" stroke-dasharray="8.0,6.0" d="m263.62424 195.78755l11.728088 0.11798096" fill-rule="evenodd"></path><path fill="#666666" stroke="#666666" stroke-width="2.0" stroke-linecap="butt" d="m257.04456 195.72134c0.01828003 -1.816925 1.506012 -3.2750092 3.322937 -3.2567291c1.816925 0.01828003 3.2750244 1.5059967 3.2567444 3.3229218c-0.01828003 1.816925 -1.506012 3.2750244 -3.322937 3.2567444c-1.816925 -0.01828003 -3.2750244 -1.506012 -3.2567444 -3.322937z" fill-rule="nonzero"></path><path fill="#666666" stroke="#666666" stroke-width="2.0" stroke-linecap="butt" d="m275.3191 199.20883l9.108948 -3.2120056l-9.04248 -3.3945923z" fill-rule="evenodd"></path><path fill="#000000" fill-opacity="0.0" d="m333.24146 135.26247l21.070892 -0.31495667" fill-rule="nonzero"></path><path stroke="#666666" stroke-width="2.0" stroke-linejoin="round" stroke-linecap="butt" d="m333.24146 135.26247l21.070892 -0.31495667" fill-rule="nonzero"></path><path fill="#000000" fill-opacity="0.0" d="m333.24146 257.10498l21.070892 -0.3149414" fill-rule="nonzero"></path><path stroke="#666666" stroke-width="2.0" stroke-linejoin="round" stroke-linecap="butt" d="m333.24146 257.10498l21.070892 -0.3149414" fill-rule="nonzero"></path><path fill="#000000" fill-opacity="0.0" d="m333.24146 196.18373l21.070892 -0.31497192" fill-rule="nonzero"></path><path stroke="#666666" stroke-width="2.0" stroke-linejoin="round" stroke-linecap="butt" d="m333.24146 196.18373l21.070892 -0.31497192" fill-rule="nonzero"></path><path fill="#000000" fill-opacity="0.0" d="m353.69028 135.57217l0.62994385 61.385834" fill-rule="nonzero"></path><path stroke="#666666" stroke-width="2.0" stroke-linejoin="round" stroke-linecap="butt" d="m353.69028 135.57217l0.62994385 61.385834" fill-rule="nonzero"></path><path fill="#000000" fill-opacity="0.0" d="m353.69028 257.08923l0.62994385 -61.38582" fill-rule="nonzero"></path><path stroke="#666666" stroke-width="2.0" stroke-linejoin="round" stroke-linecap="butt" d="m353.69028 257.08923l0.62994385 -61.38582" fill-rule="nonzero"></path><path fill="#000000" fill-opacity="0.0" d="m355.55118 196.3307l73.763794 -0.62991333" fill-rule="nonzero"></path><path stroke="#666666" stroke-width="2.0" stroke-linejoin="round" stroke-linecap="butt" d="m355.55118 196.3307l61.76422 -0.52745056" fill-rule="evenodd"></path><path fill="#666666" stroke="#666666" stroke-width="2.0" stroke-linecap="butt" d="m417.3436 199.1066l9.047668 -3.380844l-9.104065 -3.2258453z" fill-rule="evenodd"></path><path fill="#000000" fill-opacity="0.0" d="m125.33071 195.71129l89.5118 0l0 27.968506l-89.5118 0z" fill-rule="nonzero"></path><path fill="#000000" d="m135.8307 222.63129l0 -13.59375l9.84375 0l0 1.59375l-8.046875 0l0 4.171875l7.53125 0l0 1.59375l-7.53125 0l0 4.625l8.359375 0l0 1.609375l-10.15625 0zm18.631073 -1.21875q-0.9375 0.796875 -1.796875 1.125q-0.859375 0.3125 -1.84375 0.3125q-1.609375 0 -2.484375 -0.78125q-0.875 -0.796875 -0.875 -2.03125q0 -0.734375 0.328125 -1.328125q0.328125 -0.59375 0.859375 -0.953125q0.53125 -0.359375 1.203125 -0.546875q0.5 -0.140625 1.484375 -0.25q2.03125 -0.25 2.984375 -0.578125q0 -0.34375 0 -0.4375q0 -1.015625 -0.46875 -1.4375q-0.640625 -0.5625 -1.90625 -0.5625q-1.171875 0 -1.734375 0.40625q-0.5625 0.40625 -0.828125 1.46875l-1.640625 -0.234375q0.234375 -1.046875 0.734375 -1.6875q0.515625 -0.640625 1.46875 -0.984375q0.96875 -0.359375 2.25 -0.359375q1.265625 0 2.046875 0.296875q0.78125 0.296875 1.15625 0.75q0.375 0.453125 0.515625 1.140625q0.09375 0.421875 0.09375 1.53125l0 2.234375q0 2.328125 0.09375 2.953125q0.109375 0.609375 0.4375 1.171875l-1.75 0q-0.265625 -0.515625 -0.328125 -1.21875zm-0.140625 -3.71875q-0.90625 0.359375 -2.734375 0.625q-1.03125 0.140625 -1.453125 0.328125q-0.421875 0.1875 -0.65625 0.546875q-0.234375 0.359375 -0.234375 0.796875q0 0.671875 0.5 1.125q0.515625 0.4375 1.484375 0.4375q0.96875 0 1.71875 -0.421875q0.75 -0.4375 1.109375 -1.15625q0.265625 -0.578125 0.265625 -1.671875l0 -0.609375zm10.516342 1.328125l1.640625 0.21875q-0.265625 1.6875 -1.375 2.65625q-1.109375 0.953125 -2.734375 0.953125q-2.015625 0 -3.25 -1.3125q-1.21875 -1.328125 -1.21875 -3.796875q0 -1.59375 0.515625 -2.78125q0.53125 -1.203125 1.609375 -1.796875q1.09375 -0.609375 2.359375 -0.609375q1.609375 0 2.625 0.8125q1.015625 0.8125 1.3125 2.3125l-1.625 0.25q-0.234375 -1.0 -0.828125 -1.5q-0.59375 -0.5 -1.421875 -0.5q-1.265625 0 -2.0625 0.90625q-0.78125 0.90625 -0.78125 2.859375q0 1.984375 0.765625 2.890625q0.765625 0.890625 1.984375 0.890625q0.984375 0 1.640625 -0.59375q0.65625 -0.609375 0.84375 -1.859375zm2.890625 3.609375l0 -13.59375l1.671875 0l0 4.875q1.171875 -1.359375 2.953125 -1.359375q1.09375 0 1.890625 0.4375q0.8125 0.421875 1.15625 1.1875q0.359375 0.765625 0.359375 2.203125l0 6.25l-1.671875 0l0 -6.25q0 -1.25 -0.546875 -1.8125q-0.546875 -0.578125 -1.53125 -0.578125q-0.75 0 -1.40625 0.390625q-0.640625 0.375 -0.921875 1.046875q-0.28125 0.65625 -0.28125 1.8125l0 5.390625l-1.671875 0z" fill-rule="nonzero"></path><path fill="#000000" d="m135.5807 248.41254l0 -13.640625l1.53125 0l0 1.28125q0.53125 -0.75 1.203125 -1.125q0.6875 -0.375 1.640625 -0.375q1.265625 0 2.234375 0.65625q0.96875 0.640625 1.453125 1.828125q0.5 1.1875 0.5 2.59375q0 1.515625 -0.546875 2.734375q-0.546875 1.203125 -1.578125 1.84375q-1.03125 0.640625 -2.171875 0.640625q-0.84375 0 -1.515625 -0.34375q-0.65625 -0.359375 -1.078125 -0.890625l0 4.796875l-1.671875 0zm1.515625 -8.65625q0 1.90625 0.765625 2.8125q0.78125 0.90625 1.875 0.90625q1.109375 0 1.890625 -0.9375q0.796875 -0.9375 0.796875 -2.921875q0 -1.875 -0.78125 -2.8125q-0.765625 -0.9375 -1.84375 -0.9375q-1.0625 0 -1.890625 1.0q-0.8125 1.0 -0.8125 2.890625zm8.875717 -6.8125l0 -1.90625l1.671875 0l0 1.90625l-1.671875 0zm0 11.6875l0 -9.859375l1.671875 0l0 9.859375l-1.671875 0zm3.0198212 0l3.59375 -5.125l-3.328125 -4.734375l2.09375 0l1.515625 2.3125q0.421875 0.65625 0.671875 1.109375q0.421875 -0.609375 0.765625 -1.09375l1.65625 -2.328125l1.984375 0l-3.390625 4.640625l3.65625 5.21875l-2.046875 0l-2.03125 -3.0625l-0.53125 -0.828125l-2.59375 3.890625l-2.015625 0zm17.1875 -3.171875l1.71875 0.21875q-0.40625 1.5 -1.515625 2.34375q-1.09375 0.828125 -2.8125 0.828125q-2.15625 0 -3.421875 -1.328125q-1.265625 -1.328125 -1.265625 -3.734375q0 -2.484375 1.265625 -3.859375q1.28125 -1.375 3.328125 -1.375q1.984375 0 3.234375 1.34375q1.25 1.34375 1.25 3.796875q0 0.140625 -0.015625 0.4375l-7.34375 0q0.09375 1.625 0.921875 2.484375q0.828125 0.859375 2.0625 0.859375q0.90625 0 1.546875 -0.46875q0.65625 -0.484375 1.046875 -1.546875zm-5.484375 -2.703125l5.5 0q-0.109375 -1.234375 -0.625 -1.859375q-0.796875 -0.96875 -2.078125 -0.96875q-1.140625 0 -1.9375 0.78125q-0.78125 0.765625 -0.859375 2.046875zm9.078842 5.875l0 -13.59375l1.671875 0l0 13.59375l-1.671875 0zm3.5041962 -2.9375l1.65625 -0.265625q0.140625 1.0 0.765625 1.53125q0.640625 0.515625 1.78125 0.515625q1.15625 0 1.703125 -0.46875q0.5625 -0.46875 0.5625 -1.09375q0 -0.5625 -0.484375 -0.890625q-0.34375 -0.21875 -1.703125 -0.5625q-1.84375 -0.46875 -2.5625 -0.796875q-0.703125 -0.34375 -1.078125 -0.9375q-0.359375 -0.609375 -0.359375 -1.328125q0 -0.65625 0.296875 -1.21875q0.3125 -0.5625 0.828125 -0.9375q0.390625 -0.28125 1.0625 -0.484375q0.671875 -0.203125 1.4375 -0.203125q1.171875 0 2.046875 0.34375q0.875 0.328125 1.28125 0.90625q0.421875 0.5625 0.578125 1.515625l-1.625 0.21875q-0.109375 -0.75 -0.65625 -1.171875q-0.53125 -0.4375 -1.5 -0.4375q-1.15625 0 -1.640625 0.390625q-0.484375 0.375 -0.484375 0.875q0 0.328125 0.203125 0.59375q0.203125 0.265625 0.640625 0.4375q0.25 0.09375 1.46875 0.4375q1.765625 0.46875 2.46875 0.765625q0.703125 0.296875 1.09375 0.875q0.40625 0.578125 0.40625 1.4375q0 0.828125 -0.484375 1.578125q-0.484375 0.734375 -1.40625 1.140625q-0.921875 0.390625 -2.078125 0.390625q-1.921875 0 -2.9375 -0.796875q-1.0 -0.796875 -1.28125 -2.359375z" fill-rule="nonzero"></path></g></svg>

