<?xml version="1.0" standalone="yes"?>

<svg version="1.1" viewBox="0.0 0.0 615.0 236.0" fill="none" stroke="none" stroke-linecap="square" stroke-miterlimit="10" xmlns="http://www.w3.org/2000/svg" xmlns:xlink="http://www.w3.org/1999/xlink"><clipPath id="p.0"><path d="m0 0l615.0 0l0 236.0l-615.0 0l0 -236.0z" clip-rule="nonzero"></path></clipPath><g clip-path="url(#p.0)"><path fill="#000000" fill-opacity="0.0" d="m0 0l615.0 0l0 236.0l-615.0 0z" fill-rule="nonzero"></path><path fill="#000000" fill-opacity="0.0" d="m0 0l78.83464 0l0 78.83464l-78.83464 0z" fill-rule="nonzero"></path><path stroke="#000000" stroke-width="2.0" stroke-linejoin="round" stroke-linecap="butt" d="m0 0l78.83464 0l0 78.83464l-78.83464 0z" fill-rule="nonzero"></path><path fill="#000000" fill-opacity="0.0" d="m0 150.99738l78.83464 0l0 78.83464l-78.83464 0z" fill-rule="nonzero"></path><path stroke="#000000" stroke-width="2.0" stroke-linejoin="round" stroke-linecap="butt" d="m0 150.99738l78.83464 0l0 78.83464l-78.83464 0z" fill-rule="nonzero"></path><path fill="#ff0000" d="m78.83465 0l78.83463 0l0 78.83464l-78.83463 0z" fill-rule="nonzero"></path><path stroke="#000000" stroke-width="2.0" stroke-linejoin="round" stroke-linecap="butt" d="m78.83465 0l78.83463 0l0 78.83464l-78.83463 0z" fill-rule="nonzero"></path><path fill="#ffff00" d="m78.83465 78.83465l78.83463 0l0 78.83463l-78.83463 0z" fill-rule="nonzero"></path><path stroke="#000000" stroke-width="2.0" stroke-linejoin="round" stroke-linecap="butt" d="m78.83465 78.83465l78.83463 0l0 78.83463l-78.83463 0z" fill-rule="nonzero"></path><path fill="#000000" d="m120.41994 135.33197l0 -8.234383l-14.90625 0l0 -3.859375l15.6875 -22.265625l3.4375 0l0 22.265625l4.640625 0l0 3.859375l-4.640625 0l0 8.234383l-4.21875 0zm0 -12.093758l0 -15.5l-10.75 15.5l10.75 0z" fill-rule="nonzero"></path><path fill="#ff0000" d="m78.83465 157.6693l78.83463 0l0 72.15747l-78.83463 0z" fill-rule="nonzero"></path><path stroke="#000000" stroke-width="2.0" stroke-linejoin="round" stroke-linecap="butt" d="m78.83465 157.6693l78.83463 0l0 72.15747l-78.83463 0z" fill-rule="nonzero"></path><path fill="#000000" fill-opacity="0.0" d="m157.6693 0l78.83464 0l0 78.83464l-78.83464 0z" fill-rule="nonzero"></path><path stroke="#000000" stroke-width="2.0" stroke-linejoin="round" stroke-linecap="butt" d="m157.6693 0l78.83464 0l0 78.83464l-78.83464 0z" fill-rule="nonzero"></path><path fill="#000000" fill-opacity="0.0" d="m157.6693 150.99738l78.83464 0l0 78.83464l-78.83464 0z" fill-rule="nonzero"></path><path stroke="#000000" stroke-width="2.0" stroke-linejoin="round" stroke-linecap="butt" d="m157.6693 150.99738l78.83464 0l0 78.83464l-78.83464 0z" fill-rule="nonzero"></path><path fill="#ff0000" d="m370.04987 0l78.834656 0l0 78.83464l-78.834656 0z" fill-rule="nonzero"></path><path stroke="#000000" stroke-width="2.0" stroke-linejoin="round" stroke-linecap="butt" d="m370.04987 0l78.834656 0l0 78.83464l-78.834656 0z" fill-rule="nonzero"></path><path fill="#ff0000" d="m370.04987 78.83465l78.834656 0l0 78.83463l-78.834656 0z" fill-rule="nonzero"></path><path stroke="#000000" stroke-width="2.0" stroke-linejoin="round" stroke-linecap="butt" d="m370.04987 78.83465l78.834656 0l0 78.83463l-78.834656 0z" fill-rule="nonzero"></path><path fill="#ff0000" d="m370.04987 150.99738l78.834656 0l0 78.83464l-78.834656 0z" fill-rule="nonzero"></path><path stroke="#000000" stroke-width="2.0" stroke-linejoin="round" stroke-linecap="butt" d="m370.04987 150.99738l78.834656 0l0 78.83464l-78.834656 0z" fill-rule="nonzero"></path><path fill="#ff0000" d="m448.88452 0l78.834656 0l0 78.83464l-78.834656 0z" fill-rule="nonzero"></path><path stroke="#000000" stroke-width="2.0" stroke-linejoin="round" stroke-linecap="butt" d="m448.88452 0l78.834656 0l0 78.83464l-78.834656 0z" fill-rule="nonzero"></path><path fill="#ffff00" d="m448.88452 78.83465l78.834656 0l0 78.83463l-78.834656 0z" fill-rule="nonzero"></path><path stroke="#000000" stroke-width="2.0" stroke-linejoin="round" stroke-linecap="butt" d="m448.88452 78.83465l78.834656 0l0 78.83463l-78.834656 0z" fill-rule="nonzero"></path><path fill="#000000" d="m483.43857 116.69134q-2.625 -0.953125 -3.890625 -2.734375q-1.265625 -1.78125 -1.265625 -4.265625q0 -3.75 2.6875 -6.296875q2.703125 -2.5625 7.1875 -2.5625q4.5 0 7.234375 2.609375q2.75 2.609375 2.75 6.359375q0 2.390625 -1.265625 4.171875q-1.25 1.765625 -3.796875 2.71875q3.15625 1.03125 4.8125 3.328125q1.65625 2.296875 1.65625 5.484375q0 4.4062576 -3.125 7.4218826q-3.109375 3.0 -8.203125 3.0q-5.078125 0 -8.203125 -3.015625q-3.109375 -3.015625 -3.109375 -7.5156326q0 -3.359375 1.6875 -5.609375q1.703125 -2.265625 4.84375 -3.09375zm-0.84375 -7.140625q0 2.4375 1.5625 3.984375q1.578125 1.546875 4.09375 1.546875q2.4375 0 3.984375 -1.53125q1.5625 -1.546875 1.5625 -3.765625q0 -2.328125 -1.609375 -3.90625q-1.59375 -1.578125 -3.984375 -1.578125q-2.421875 0 -4.015625 1.546875q-1.59375 1.546875 -1.59375 3.703125zm-1.359375 15.859375q0 1.8125 0.859375 3.5000076q0.859375 1.6875 2.546875 2.609375q1.6875 0.921875 3.625 0.921875q3.03125 0 5.0 -1.9375q1.96875 -1.953125 1.96875 -4.9531326q0 -3.046875 -2.03125 -5.03125q-2.03125 -2.0 -5.078125 -2.0q-2.96875 0 -4.9375 1.96875q-1.953125 1.96875 -1.953125 4.921875z" fill-rule="nonzero"></path><path fill="#ff0000" d="m448.88452 150.99738l78.834656 0l0 78.83464l-78.834656 0z" fill-rule="nonzero"></path><path stroke="#000000" stroke-width="2.0" stroke-linejoin="round" stroke-linecap="butt" d="m448.88452 150.99738l78.834656 0l0 78.83464l-78.834656 0z" fill-rule="nonzero"></path><path fill="#ff0000" d="m527.7192 0l78.834656 0l0 78.83464l-78.834656 0z" fill-rule="nonzero"></path><path stroke="#000000" stroke-width="2.0" stroke-linejoin="round" stroke-linecap="butt" d="m527.7192 0l78.834656 0l0 78.83464l-78.834656 0z" fill-rule="nonzero"></path><path fill="#ff0000" d="m527.7192 78.83465l78.834656 0l0 78.83463l-78.834656 0z" fill-rule="nonzero"></path><path stroke="#000000" stroke-width="2.0" stroke-linejoin="round" stroke-linecap="butt" d="m527.7192 78.83465l78.834656 0l0 78.83463l-78.834656 0z" fill-rule="nonzero"></path><path fill="#ff0000" d="m527.7192 150.99738l78.834656 0l0 78.83464l-78.834656 0z" fill-rule="nonzero"></path><path stroke="#000000" stroke-width="2.0" stroke-linejoin="round" stroke-linecap="butt" d="m527.7192 150.99738l78.834656 0l0 78.83464l-78.834656 0z" fill-rule="nonzero"></path><path fill="#ff0000" d="m0 78.83465l78.83464 0l0 78.83463l-78.83464 0z" fill-rule="nonzero"></path><path stroke="#000000" stroke-width="2.0" stroke-linejoin="round" stroke-linecap="butt" d="m0 78.83465l78.83464 0l0 78.83463l-78.83464 0z" fill-rule="nonzero"></path><path fill="#ff0000" d="m157.6693 78.83465l78.83464 0l0 78.83463l-78.83464 0z" fill-rule="nonzero"></path><path stroke="#000000" stroke-width="2.0" stroke-linejoin="round" stroke-linecap="butt" d="m157.6693 78.83465l78.83464 0l0 78.83463l-78.83464 0z" fill-rule="nonzero"></path></g></svg>

